# Created by Kenney (www.kenney.nl)

mtllib inserter-head.mtl

g mergedBlocks

v 0.05600001 0.07280005 -0.02950001
v 0.056 0.07280005 0.0495
v -0.052 0.07280003 -0.02950002
v -0.052 0.07280003 0.04949999
v 0.11 -0.01719995 -0.1085
v 0.11 -0.01719995 0.01
v 0.05600002 -0.01719995 -0.1085
v 0.11 -0.01719995 0.1285
v 0.056 -0.01719995 0.1285
v -0.05200001 0.02780004 0.1285
v -0.052 -0.01719996 0.1285
v -0.05199998 -0.01719996 -0.1085
v -0.05199999 0.02780004 -0.1085
v 0.05599999 0.02780005 0.1285
v 0.05600002 0.02780005 -0.1085
v 0.11 -0.1071999 -0.1085
v -0.106 -0.01719996 -0.1085
v -0.106 -0.1072 -0.1085
v -0.106 -0.01719996 0.1285
v -0.106 -0.01719996 0.009999981
v -0.106 -0.06219998 0.1285
v -0.106 -0.06219998 0.04949998
v -0.106 -0.06219998 -0.02950002
v -0.106 -0.1072 -0.02950002
v 0.11 -0.1071999 -0.0295
v 0.11 -0.06219995 -0.0295
v 0.11 -0.06219995 0.0495
v 0.11 -0.06219995 0.1285
v -0.395 0.2112 -0.3
v -0.316 0.2112 -0.3
v -0.395 0.1732 -0.3
v -0.316 0.1732 -0.3
v -0.316 0.2112 0.3
v -0.395 0.2112 0.3
v -0.316 0.1732 0.3
v -0.395 0.1732 0.3
v -0.395 0.2872 -0.16
v -0.316 0.2872 -0.16
v -0.395 0.2112 -0.2
v -0.316 0.2112 -0.2
v -0.395 0.2112 0.2
v -0.316 0.2112 0.2
v -0.395 0.1352 0.25
v -0.395 0.1352 -0.25
v -0.316 0.1352 0.25
v -0.316 0.1352 -0.25
v -0.395 0.2872 -0.1
v -0.3555 0.2872 -0.1
v -0.3555 0.2872 0.09999997
v -0.316 0.2872 0.15
v -0.395 0.2872 0.15
v -0.395 0.2872 0.09999996
v -0.395 0.1732 0.09999996
v -0.395 0.1732 -0.1
v -0.158 0.2112 0.04999999
v -0.316 0.2112 0.04999997
v -0.158 0.1732 0.04999999
v -0.316 0.1732 0.04999997
v 0.395 0.2872 -0.09999996
v 0.395 0.1732 -0.09999996
v 0.395 0.2872 -0.15
v 0.395 0.1352 -0.25
v 0.395 0.1732 0.1
v 0.395 0.1352 0.25
v 0.395 0.2112 0.2
v 0.395 0.1732 0.3
v 0.395 0.2112 0.3
v 0.395 0.2872 0.16
v 0.395 0.2872 0.1
v 0.395 0.2112 -0.2
v 0.395 0.2112 -0.3
v 0.395 0.1732 -0.3
v 0.316 0.2112 -0.3
v 0.316 0.2112 -0.2
v 0.316 0.2872 -0.15
v 0.316 0.2112 0.3
v 0.316 0.1732 0.3
v 0.316 0.1732 -0.3
v 0.316 0.2872 0.16
v 0.316 0.2112 0.2
v 0.316 0.1352 -0.25
v 0.3555 0.2872 -0.09999997
v 0.3555 0.2872 0.1
v 0.316 0.1352 0.25
v 0.158 0.2112 -0.04999999
v 0.316 0.2112 -0.04999997
v 0.158 0.1732 -0.04999999
v 0.316 0.1732 -0.04999997
v 0.316 0.2112 0.05000003
v 0.158 0.2112 0.05000002
v 0.316 0.1732 0.05000003
v 0.158 0.1732 0.05000002
v -0.316 0.2112 -0.05000003
v -0.158 0.2112 -0.05000002
v -0.316 0.1732 -0.05000003
v -0.158 0.1732 -0.05000002
v 0.11 -0.1972 -0.1085
v 0.05600004 -0.1972 -0.1085
v 0.11 -0.2422 -0.0295
v 0.05600003 -0.2422 -0.02950001
v -0.106 -0.1972 0.1285
v 0.11 -0.1972 0.1285
v -0.05199999 -0.1972 0.1285
v 0.05600001 -0.1972 0.1285
v -0.05199997 -0.1972 -0.1085
v -0.106 -0.1972 -0.1085
v -0.05199997 -0.2422 -0.02950002
v -0.106 -0.2422 -0.02950002
v 0.05600002 -0.2422 0.0495
v 0.11 -0.2422 0.0495
v -0.05199997 -0.2871999 -0.02950002
v -0.106 -0.2871999 -0.02950002
v -0.106 -0.2422 0.04949998
v -0.05199998 -0.2422 0.04949999
v -0.05199997 -0.2871999 0.04949999
v -0.106 -0.2871999 0.04949998
v 0.05600003 -0.2871999 0.0495
v 0.05600004 -0.2871999 -0.02950001
v 0.11 -0.2871999 0.0495
v 0.11 -0.2871999 -0.0295
v -0.106 -0.1972 0.04949998
v -0.106 -0.1972 -0.02950002
v 0.11 -0.1972 0.0495
v 0.11 -0.1972 -0.0295
v -0.158 0.05920005 0.15
v -0.158 0.2112 0.15
v -0.158 0.05920005 -0.15
v -0.158 0.2112 -0.15
v 0.158 0.05920005 0.15
v 0.158 0.05920005 -0.15
v 0.158 0.2112 0.15
v 0.158 0.2112 -0.15
v -0.3555 0.1732 -0.1
v -0.3555 0.1732 0.09999997
v 0.3555 0.1732 0.1
v 0.3555 0.1732 -0.09999997

vn -8.742278E-08 1 -7.642742E-15
vn -1 -8.742278E-08 -8.742278E-08
vn -1.192336E-07 0.8689192 0.494954
vn 1 8.742278E-08 8.742278E-08
vn -3.269308E-08 0.8689192 -0.494954
vn 8.742278E-08 4.705739E-22 -1
vn -8.742278E-08 -4.705739E-22 1
vn 8.742278E-08 0 -1
vn 7.676216E-08 -0.4785565 -0.8780567
vn -8.742278E-08 0 1
vn -7.676216E-08 -0.4785565 0.8780567
vn 7.7362E-08 0.4657464 -0.8849182
vn 0 1 0
vn -2.625088E-08 -0.9538527 0.300275
vn 2.625088E-08 -0.9538527 -0.300275
vn -1 0 -8.742278E-08
vn -7.303449E-08 0.5496165 0.8354172
vn 1 0 8.742278E-08
vn 7.303449E-08 0.5496165 -0.8354172
vn -7.7362E-08 0.4657464 0.8849182
vn 0 -1 0
vn 1.192336E-07 -0.8689192 -0.494954
vn 3.269308E-08 -0.8689192 0.494954
vn 8.742278E-08 -1 7.642742E-15

vt -0.05600001 -0.02950001
vt -0.056 0.0495
vt 0.052 -0.02950002
vt 0.052 0.04949999
vt -0.11 -0.1085
vt -0.11 0.01
vt -0.05600002 -0.1085
vt -0.11 0.1285
vt -0.056 0.1285
vt 0.1285 0.02780004
vt 0.1285 -0.01719996
vt 0.04949999 0.07280003
vt -0.1085 -0.01719996
vt -0.02950002 0.07280003
vt -0.1085 0.02780004
vt -0.056 0.1285
vt 0.05200001 0.1285
vt -0.1285 -0.01719995
vt -0.1285 0.02780005
vt 0.1085 -0.01719995
vt -0.0495 0.07280005
vt 0.02950001 0.07280005
vt 0.1085 0.02780005
vt -0.05600002 -0.1085
vt 0.05199999 -0.1085
vt -0.11 -0.01719995
vt -0.05600002 -0.01719995
vt -0.11 -0.1071999
vt 0.05199999 -0.01719996
vt 0.106 -0.01719997
vt 0.106 -0.1072
vt 0.05199999 0.02780004
vt -0.05600002 0.02780005
vt 0.05199999 -0.1085
vt 0.052 0.1285
vt 0.106 -0.1085
vt 0.106 0.1285
vt -0.106 -0.01719997
vt -0.106 -0.01719997
vt -0.106 -0.01719997
vt 0.1285 -0.01719997
vt 0.1285 -0.06219997
vt 0.009999981 -0.01719997
vt 0.04949998 -0.06219997
vt -0.02950002 -0.06219997
vt -0.1085 -0.01719997
vt -0.02950002 -0.1072
vt -0.1085 -0.1072
vt 0.0295 -0.1071999
vt 0.0295 -0.06219995
vt 0.1085 -0.1071999
vt 0.1085 -0.01719995
vt -0.01 -0.01719995
vt -0.0495 -0.06219995
vt -0.1285 -0.01719995
vt -0.1285 -0.06219995
vt -0.052 -0.01719996
vt -0.106 -0.06219997
vt 0.056 -0.01719995
vt 0.11 -0.01719995
vt 0.11 -0.06219995
vt 0.056 0.02780005
vt -0.05200001 0.02780004
vt -0.395 0.2112
vt -0.316 0.2112
vt -0.395 0.1732
vt -0.316 0.1732
vt 0.316 0.2112
vt 0.395 0.2112
vt 0.316 0.1732
vt 0.395 0.1732
vt -0.395 0.2872
vt -0.316 0.2872
vt 0.395 -0.2
vt 0.395 -0.3
vt 0.316 -0.2
vt 0.316 -0.3
vt 0.395 0.25
vt 0.395 -0.25
vt 0.316 0.25
vt 0.316 -0.25
vt 0.395 0.16
vt 0.395 0.1
vt 0.316 0.16
vt 0.3555 0.1
vt 0.3555 -0.09999997
vt 0.316 -0.15
vt 0.395 -0.15
vt 0.395 -0.09999996
vt -0.3 0.1732
vt -0.3 0.2112
vt -0.25 0.1352
vt -0.2 0.2112
vt -0.09999996 0.1732
vt 0.25 0.1352
vt -0.15 0.2872
vt 0.1 0.1732
vt 0.1 0.2872
vt 0.2 0.2112
vt 0.16 0.2872
vt 0.3 0.2112
vt 0.3 0.1732
vt -0.09999996 0.2872
vt 0.316 0.2872
vt 0.395 0.2872
vt 0.395 0.3
vt 0.395 0.2
vt 0.316 0.3
vt 0.316 0.2
vt 0.158 0.2112
vt 0.316 0.2112
vt 0.158 0.1732
vt 0.316 0.1732
vt 0.395 0.1352
vt -0.316 0.3
vt -0.316 0.2
vt -0.395 0.3
vt -0.395 0.2
vt -0.316 -0.3
vt -0.395 -0.3
vt -0.316 -0.25
vt -0.395 -0.25
vt -0.316 -0.16
vt -0.3555 0.09999997
vt -0.316 0.15
vt -0.395 0.15
vt -0.395 0.09999996
vt -0.3555 -0.1
vt -0.395 -0.16
vt -0.395 -0.1
vt -0.316 -0.2
vt -0.316 -0.3
vt -0.395 -0.2
vt -0.395 -0.3
vt -0.316 0.3
vt -0.316 0.25
vt -0.395 0.3
vt -0.395 0.25
vt 0.316 0.3
vt 0.395 0.3
vt 0.395 -0.3
vt 0.316 -0.3
vt -0.316 0.2112
vt -0.158 0.2112
vt -0.316 0.1732
vt -0.158 0.1732
vt -0.158 0.04999999
vt -0.158 -0.05000002
vt -0.316 0.04999997
vt -0.316 -0.05000003
vt 0.316 0.05000003
vt 0.316 -0.04999997
vt 0.158 0.05000002
vt 0.158 -0.04999999
vt 0.316 0.04999997
vt 0.316 -0.05000003
vt 0.158 0.04999999
vt 0.158 -0.05000002
vt 0.15 0.2872
vt 0.04999997 0.2112
vt -0.16 0.2872
vt -0.05000003 0.2112
vt -0.05000003 0.1732
vt 0.04999997 0.1732
vt 0.2 0.2112
vt 0.25 0.1352
vt 0.3 0.1732
vt 0.3 0.2112
vt -0.25 0.1352
vt -0.2 0.2112
vt -0.3 0.2112
vt -0.3 0.1732
vt -0.158 0.05000002
vt -0.158 -0.04999999
vt -0.316 0.05000003
vt -0.316 -0.04999997
vt 0.316 0.1352
vt -0.11 0.1085
vt -0.05600004 0.1085
vt -0.11 0.0295
vt -0.05600004 0.02950001
vt -0.106 -0.1972
vt 0.11 -0.1972
vt -0.05199999 -0.1972
vt 0.05600002 -0.1972
vt 0.05199997 0.1085
vt 0.106 0.1085
vt 0.05199997 0.02950002
vt 0.106 0.02950002
vt -0.05600002 -0.1285
vt -0.11 -0.1285
vt -0.05600003 -0.0495
vt -0.11 -0.0495
vt 0.05199997 -0.2422
vt 0.106 -0.2422
vt 0.05199997 -0.2872
vt 0.106 -0.2872
vt 0.106 -0.1285
vt 0.05199999 -0.1285
vt 0.106 -0.04949998
vt 0.05199998 -0.04949999
vt 0.05199997 -0.04949999
vt 0.05199997 0.02950002
vt 0.106 -0.04949998
vt 0.106 0.02950002
vt -0.04949999 -0.2872
vt -0.04949999 -0.2422
vt 0.02950002 -0.2872
vt -0.1285 -0.1972
vt 0.1085 -0.1972
vt 0.02950002 -0.2422
vt 0.1285 -0.1972
vt 0.0495 -0.2421999
vt -0.1085 -0.1972
vt 0.0495 -0.2871999
vt 0.05600004 -0.2421999
vt 0.05600004 -0.1972
vt 0.05600003 -0.2871999
vt -0.02950001 -0.2421999
vt -0.02950001 -0.2871999
vt 0.05600003 -0.2421999
vt 0.11 -0.2421999
vt 0.11 -0.2871999
vt -0.106 -0.2422
vt -0.05199998 -0.2422
vt -0.106 -0.2872
vt -0.05199997 -0.2872
vt -0.11 -0.0495
vt -0.11 0.0295
vt -0.05600003 -0.0495
vt -0.05600004 0.02950001
vt -0.11 -0.2421999
vt -0.05600004 -0.2421999
vt -0.11 -0.2871999
vt -0.05600004 -0.2871999
vt 0.1285 -0.1972
vt 0.04949998 -0.1972
vt -0.02950002 -0.1972
vt 0.04949998 -0.2872
vt 0.04949998 -0.2422
vt -0.02950002 -0.2872
vt -0.106 -0.2422
vt -0.106 -0.1972
vt -0.106 -0.2872
vt -0.02950002 -0.2422
vt -0.1085 -0.1972
vt -0.0495 -0.2871999
vt -0.0495 -0.2421999
vt 0.0295 -0.2871999
vt -0.0495 -0.1972
vt 0.0295 -0.1972
vt 0.11 -0.1071999
vt 0.11 -0.2871999
vt 0.11 -0.1972
vt 0.11 -0.2421999
vt 0.0295 -0.2421999
vt 0.1085 -0.1972
vt -0.1285 -0.1972
vt -0.11 -0.1972
vt 0.106 -0.1972
vt -0.106 -0.1972
vt -0.05199997 -0.1972
vt -0.106 -0.1072
vt -0.106 -0.06219997
vt 0.11 -0.06219995
vt -0.15 0.05920004
vt -0.15 0.2112
vt 0.15 0.05920004
vt -0.04999999 0.1732
vt 0.05000002 0.1732
vt 0.05000002 0.2112
vt 0.15 0.2112
vt -0.04999999 0.2112
vt 0.158 0.15
vt 0.158 -0.15
vt -0.158 0.15
vt -0.158 -0.15
vt -0.158 0.2112
vt 0.158 0.2112
vt -0.158 0.05920004
vt 0.158 0.05920004
vt 0.3555 0.2872
vt 0.3555 0.1732
vt 0.395 0.1732
vt 0.1 0.1732
vt -0.09999997 0.1732
vt 0.1 0.2872
vt -0.09999997 0.2872
vt -0.3555 0.2872
vt -0.395 0.1732
vt -0.3555 0.1732
vt 0.158 0.15
vt -0.158 0.15
vt 0.158 -0.15
vt -0.158 -0.15
vt 0.158 0.2112

usemtl dark(Clone)

f 3/3/1 2/2/1 1/1/1
f 2/2/1 3/3/1 4/4/1
f 7/7/1 6/6/1 5/5/1
f 6/6/1 7/7/1 8/8/1
f 8/8/1 7/7/1 9/9/1
f 4/12/2 11/11/2 10/10/2
f 11/11/2 4/12/2 12/13/2
f 12/13/2 4/12/2 3/14/2
f 12/13/2 3/14/2 13/15/2
f 4/4/3 14/16/3 2/2/3
f 14/16/3 4/4/3 10/17/3
f 7/20/4 14/19/4 9/18/4
f 14/19/4 7/20/4 2/21/4
f 2/21/4 7/20/4 1/22/4
f 1/22/4 7/20/4 15/23/4
f 15/24/5 3/3/5 1/1/5
f 3/3/5 15/24/5 13/25/5
f 16/28/6 7/27/6 5/26/6
f 7/27/6 16/28/6 12/29/6
f 12/29/6 16/28/6 17/30/6
f 17/30/6 16/28/6 18/31/6
f 13/32/6 7/27/6 12/29/6
f 7/27/6 13/32/6 15/33/6
f 17/36/1 11/35/1 12/34/1
f 11/35/1 17/36/1 19/37/1
f 19/40/1 17/39/1 20/38/1
f 20/43/2 21/42/2 19/41/2
f 21/42/2 20/43/2 22/44/2
f 22/44/2 20/43/2 23/45/2
f 23/45/2 20/43/2 17/46/2
f 23/45/2 17/46/2 24/47/2
f 24/47/2 17/46/2 18/48/2
f 16/51/4 26/50/4 25/49/4
f 5/52/4 26/50/4 16/51/4
f 6/53/4 26/50/4 5/52/4
f 6/53/4 27/54/4 26/50/4
f 8/55/4 27/54/4 6/53/4
f 27/54/4 8/55/4 28/56/4
f 21/58/7 11/57/7 19/40/7
f 11/57/7 21/58/7 9/59/7
f 9/59/7 21/58/7 8/60/7
f 8/60/7 21/58/7 28/61/7
f 14/62/7 11/57/7 9/59/7
f 11/57/7 14/62/7 10/63/7
f 86/160/16 89/162/16 75/159/16
f 91/163/16 79/161/16 89/162/16
f 75/159/16 89/162/16 79/161/16
f 78/167/16 81/166/16 73/168/16
f 73/168/16 81/166/16 74/165/16
f 74/68/16 81/177/16 75/104/16
f 75/159/16 81/166/16 86/160/16
f 86/160/16 81/166/16 88/164/16
f 88/164/16 81/166/16 91/163/16
f 79/161/16 91/163/16 80/170/16
f 81/166/16 84/169/16 91/163/16
f 91/163/16 84/169/16 80/170/16
f 80/170/16 84/169/16 76/171/16
f 77/172/16 76/171/16 84/169/16
f 88/176/21 91/175/21 87/174/21
f 92/173/21 87/174/21 91/175/21
f 32/172/18 30/171/18 46/169/18
f 30/171/18 40/170/18 46/169/18
f 38/161/18 95/163/18 40/170/18
f 40/170/18 95/163/18 46/169/18
f 95/163/18 58/164/18 46/169/18
f 46/169/18 58/164/18 45/166/18
f 33/168/18 35/167/18 42/165/18
f 45/166/18 42/165/18 35/167/18
f 58/164/18 42/165/18 45/166/18
f 50/159/18 42/165/18 58/164/18
f 56/160/18 50/159/18 58/164/18
f 95/163/18 38/161/18 93/162/18
f 93/162/18 38/161/18 56/160/18
f 50/159/18 56/160/18 38/161/18
f 96/158/21 57/157/21 95/156/21
f 58/155/21 95/156/21 57/157/21
f 64/138/14 84/136/14 62/122/15
f 81/121/15 62/122/15 84/136/14
f 55/154/13 94/153/13 56/152/13
f 93/151/13 56/152/13 94/153/13
f 96/146/8 95/145/8 94/144/8
f 93/143/8 94/144/8 95/145/8
f 89/150/13 86/149/13 90/148/13
f 85/147/13 90/148/13 86/149/13
f 92/146/10 91/145/10 90/144/10
f 89/143/10 90/144/10 91/145/10
f 32/142/9 46/81/15 31/141/9
f 44/79/15 31/141/9 46/81/15
f 43/78/14 45/80/14 36/140/11
f 35/139/11 36/140/11 45/80/14
f 88/113/8 87/112/8 86/111/8
f 85/110/8 86/111/8 87/112/8
f 64/138/14 66/137/11 84/136/14
f 77/135/11 84/136/14 66/137/11
f 67/134/13 65/133/13 76/132/13
f 80/131/13 76/132/13 65/133/13
f 69/130/13 83/128/13 68/129/13
f 68/129/13 83/128/13 79/123/13
f 82/124/13 79/123/13 83/128/13
f 59/127/13 61/126/13 82/124/13
f 61/126/13 75/125/13 82/124/13
f 79/123/13 82/124/13 75/125/13
f 62/122/15 81/121/15 72/120/9
f 78/119/9 72/120/9 81/121/15
f 80/65/20 65/64/20 79/73/20
f 68/72/20 79/73/20 65/64/20
f 72/71/9 78/70/9 71/69/8
f 73/68/8 71/69/8 78/70/9
f 77/67/11 66/66/11 76/65/10
f 67/64/10 76/65/10 66/66/11
f 70/69/19 74/68/19 61/105/19
f 75/104/19 61/105/19 74/68/19
f 70/118/13 71/117/13 74/116/13
f 73/115/13 74/116/13 71/117/13
f 72/90/18 71/91/18 62/92/18
f 71/91/18 70/93/18 62/92/18
f 70/69/18 61/105/18 62/114/18
f 69/98/18 68/100/18 63/97/18
f 68/100/18 65/99/18 63/97/18
f 67/101/18 66/102/18 65/99/18
f 64/95/18 65/99/18 66/102/18
f 63/97/18 65/99/18 64/95/18
f 62/92/18 63/97/18 64/95/18
f 60/94/18 63/97/18 62/92/18
f 61/96/18 60/94/18 62/92/18
f 59/103/18 60/94/18 61/96/18
f 58/113/10 57/112/10 56/111/10
f 55/110/10 56/111/10 57/112/10
f 40/109/13 30/108/13 39/107/13
f 29/106/13 39/107/13 30/108/13
f 41/69/17 42/68/17 51/105/17
f 50/104/17 51/105/17 42/68/17
f 53/94/16 51/96/16 52/103/16
f 31/102/16 44/95/16 29/101/16
f 29/101/16 44/95/16 39/99/16
f 37/100/16 39/99/16 47/98/16
f 39/99/16 44/95/16 47/98/16
f 47/98/16 44/95/16 54/97/16
f 54/97/16 44/95/16 53/94/16
f 51/96/16 53/94/16 41/93/16
f 44/95/16 43/92/16 53/94/16
f 53/94/16 43/92/16 41/93/16
f 41/93/16 43/92/16 34/91/16
f 36/90/16 34/91/16 43/92/16
f 52/89/13 51/88/13 49/86/13
f 50/87/13 49/86/13 51/88/13
f 38/84/13 49/86/13 50/87/13
f 49/86/13 38/84/13 48/85/13
f 48/85/13 38/84/13 47/83/13
f 37/82/13 47/83/13 38/84/13
f 46/81/15 45/80/14 44/79/15
f 43/78/14 44/79/15 45/80/14
f 33/77/13 42/76/13 34/75/13
f 41/74/13 34/75/13 42/76/13
f 40/65/12 39/64/12 38/73/12
f 37/72/12 38/73/12 39/64/12
f 36/71/11 35/70/11 34/69/10
f 33/68/10 34/69/10 35/70/11
f 32/67/9 31/66/9 30/65/8
f 29/64/8 30/65/8 31/66/9

usemtl _defaultMat(Clone)

f 99/180/22 98/179/22 97/178/22
f 98/179/22 99/180/22 100/181/22
f 101/182/7 28/61/7 21/58/7
f 28/61/7 101/182/7 102/183/7
f 102/183/7 101/182/7 103/184/7
f 102/183/7 103/184/7 104/185/7
f 107/188/22 106/187/22 105/186/22
f 106/187/22 107/188/22 108/189/22
f 109/192/23 102/191/23 104/190/23
f 102/191/23 109/192/23 110/193/23
f 111/196/6 108/195/6 107/194/6
f 108/195/6 111/196/6 112/197/6
f 113/200/23 103/199/23 101/198/23
f 103/199/23 113/200/23 114/201/23
f 116/204/24 111/203/24 115/202/24
f 111/203/24 116/204/24 112/205/24
f 103/199/24 98/179/24 104/190/24
f 98/179/24 103/199/24 105/186/24
f 111/208/4 114/207/4 115/206/4
f 114/207/4 105/210/4 103/209/4
f 105/210/4 114/207/4 107/211/4
f 107/211/4 114/207/4 111/208/4
f 98/214/2 109/213/2 104/212/2
f 109/213/2 98/214/2 117/215/2
f 117/218/2 98/217/2 100/216/2
f 118/220/2 117/215/2 100/219/2
f 117/218/7 110/222/7 109/221/7
f 110/222/7 117/218/7 119/223/7
f 116/226/7 114/225/7 113/224/7
f 114/225/7 116/226/7 115/227/7
f 117/230/24 120/229/24 119/228/24
f 120/229/24 117/230/24 118/231/24
f 120/234/6 100/233/6 99/232/6
f 100/233/6 120/234/6 118/235/6
f 22/44/2 101/236/2 21/42/2
f 101/236/2 22/44/2 121/237/2
f 18/48/2 122/238/2 24/47/2
f 113/240/2 122/238/2 116/239/2
f 113/240/2 121/237/2 122/238/2
f 116/239/2 122/238/2 112/241/2
f 112/244/2 122/243/2 108/242/2
f 122/238/2 18/48/2 108/245/2
f 108/245/2 18/48/2 106/246/2
f 121/237/2 113/240/2 101/236/2
f 120/249/4 110/248/4 119/247/4
f 28/56/4 110/248/4 123/250/4
f 123/250/4 110/248/4 124/251/4
f 110/248/4 120/249/4 124/251/4
f 124/254/4 120/253/4 25/252/4
f 25/252/4 120/253/4 99/255/4
f 25/49/4 99/256/4 16/51/4
f 16/51/4 99/256/4 97/257/4
f 110/248/4 28/56/4 102/258/4
f 27/54/4 28/56/4 123/250/4
f 97/259/6 18/31/6 16/28/6
f 18/31/6 97/259/6 106/260/6
f 106/261/6 97/254/6 98/217/6
f 106/261/6 98/217/6 105/262/6
f 95/163/18 93/162/18 58/164/18
f 56/160/18 58/164/18 93/162/18
f 86/160/16 88/164/16 89/162/16
f 91/163/16 89/162/16 88/164/16

usemtl metalOrange(Clone)

f 22/44/2 122/238/2 121/237/2
f 122/238/2 22/44/2 23/45/2
f 122/243/2 23/264/2 24/263/2
f 124/251/4 27/54/4 123/250/4
f 27/54/4 124/251/4 26/50/4
f 26/265/4 124/254/4 25/252/4

usemtl steel(Clone)

f 90/110/13 85/110/13 131/296/13
f 85/110/13 132/279/13 131/296/13
f 131/295/13 132/293/13 126/294/13
f 126/294/13 132/293/13 55/154/13
f 55/154/13 132/293/13 94/153/13
f 128/292/13 94/153/13 132/293/13
f 134/291/8 53/290/8 49/289/8
f 52/72/8 49/289/8 53/290/8
f 131/272/18 129/268/18 90/271/18
f 92/270/18 90/271/18 129/268/18
f 130/266/18 92/270/18 129/268/18
f 87/269/18 92/270/18 130/266/18
f 132/267/18 87/269/18 130/266/18
f 85/273/18 87/269/18 132/267/18
f 48/287/16 133/285/16 49/288/16
f 134/286/16 49/288/16 133/285/16
f 63/130/13 60/127/13 135/128/13
f 136/124/13 135/128/13 60/127/13
f 136/291/10 60/290/10 82/289/10
f 59/72/10 82/289/10 60/290/10
f 82/288/18 83/287/18 136/286/18
f 135/285/18 136/286/18 83/287/18
f 54/284/10 133/283/10 47/105/10
f 48/282/10 47/105/10 133/283/10
f 63/284/8 135/283/8 69/105/8
f 83/282/8 69/105/8 135/283/8
f 134/86/13 133/85/13 53/89/13
f 54/83/13 53/89/13 133/85/13
f 130/281/8 127/280/8 132/279/8
f 128/278/8 132/279/8 127/280/8
f 125/281/10 129/280/10 126/279/10
f 131/278/10 126/279/10 129/280/10
f 130/277/21 129/276/21 127/275/21
f 125/274/21 127/275/21 129/276/21
f 57/269/16 126/267/16 55/273/16
f 128/272/16 127/268/16 94/271/16
f 94/271/16 127/268/16 96/270/16
f 96/270/16 127/268/16 57/269/16
f 57/269/16 127/268/16 126/267/16
f 125/266/16 126/267/16 127/268/16

